<svg width="911" height="234" viewBox="0 0 911 234" fill="none" xmlns="http://www.w3.org/2000/svg">
<path d="M298.778 146.304C304.429 139.189 307.776 130.191 307.776 120.564C307.776 97.7549 289.152 79.1309 266.552 79.1309H215.282C208.585 79.1309 203.145 84.5715 203.145 91.2677V213.895C203.145 220.592 208.585 226.033 215.282 226.033H272.411C296.685 226.033 316.565 206.153 316.565 181.878C316.565 167.23 309.66 154.465 298.778 146.304ZM283.502 120.564C283.502 129.981 275.759 137.515 266.552 137.515H227.419V103.405H266.552C275.759 103.405 283.502 111.148 283.502 120.564ZM272.411 201.759H227.419V161.79H272.411C283.293 161.79 292.291 170.787 292.291 181.878C292.291 192.76 283.293 201.759 272.411 201.759Z" fill="#0D0D0D"/>
<path d="M338.12 226.033C331.424 226.033 325.983 220.592 325.983 213.895V91.2677C325.983 84.5715 331.424 79.1309 338.12 79.1309C344.817 79.1309 350.467 84.5715 350.467 91.2677V213.895C350.467 220.592 344.817 226.033 338.12 226.033Z" fill="#0D0D0D"/>
<path d="M417.431 226.661C385.623 226.661 359.883 200.712 359.883 169.114C359.883 137.305 385.623 111.357 417.431 111.357C449.239 111.357 475.188 137.305 475.188 169.114C475.188 200.712 449.239 226.661 417.431 226.661ZM417.431 135.631C399.015 135.631 384.158 150.699 384.158 169.114C384.158 187.319 399.015 202.387 417.431 202.387C435.846 202.387 450.704 187.319 450.704 169.114C450.704 150.699 435.846 135.631 417.431 135.631Z" fill="#0D0D0D"/>
<path d="M579.82 186.064C574.169 182.297 566.636 183.553 562.869 189.202C557.219 197.154 548.43 201.759 538.385 201.759C520.808 201.759 508.042 187.737 508.042 168.277C508.042 149.024 520.808 135.004 538.385 135.004C548.43 135.004 557.219 139.607 562.869 147.559C566.636 153.21 574.169 154.465 579.82 150.699C585.261 146.722 586.516 139.189 582.749 133.748C572.496 119.099 556.382 110.729 538.385 110.729C523.109 110.729 508.879 116.798 498.835 128.098C488.999 138.561 483.558 153 483.558 168.277C483.558 183.762 488.999 198.201 498.835 208.664C508.879 219.964 523.109 226.033 538.385 226.033C556.382 226.033 572.496 217.663 582.749 203.014C586.516 197.573 585.261 190.04 579.82 186.064Z" fill="#0D0D0D"/>
<path d="M678.801 206.781L652.853 171.206C669.384 156.348 675.244 135.422 677.964 126.215C679.638 119.728 675.871 113.031 669.384 111.148C662.897 109.265 656.201 113.031 654.527 119.519C649.085 138.77 641.552 150.908 630.67 157.395C630.043 157.813 629.624 158.023 628.997 158.232C625.648 160.116 621.882 161.58 617.696 162.417V91.2677C617.696 84.5715 612.046 79.1309 605.35 79.1309C598.653 79.1309 593.213 84.5715 593.213 91.2677V213.895C593.213 220.592 598.653 226.033 605.35 226.033C612.046 226.033 617.696 220.592 617.696 213.895V186.901C622.718 186.273 627.532 185.018 631.717 183.553L659.13 221.011C661.642 224.359 665.199 226.033 668.966 226.033C671.477 226.033 673.988 225.196 676.081 223.731C681.522 219.755 682.778 212.012 678.801 206.781Z" fill="#0D0D0D"/>
<path d="M784.061 128.098C773.807 116.798 759.577 110.729 744.301 110.729C733 110.729 722.537 113.868 713.748 119.937V91.2677C713.748 84.5715 708.308 79.1309 701.611 79.1309C694.915 79.1309 689.474 84.5715 689.474 91.2677V213.895C689.474 220.592 694.915 226.033 701.611 226.033C707.261 226.033 712.283 222.057 713.329 216.616C722.328 222.684 733 226.033 744.301 226.033C759.577 226.033 773.807 219.964 784.061 208.664C793.688 198.201 799.128 183.762 799.128 168.486C799.128 153 793.688 138.561 784.061 128.098ZM744.301 201.759C726.514 201.759 713.748 187.737 713.748 168.486C713.748 149.024 726.514 135.004 744.301 135.004C761.879 135.004 774.644 149.024 774.644 168.486C774.644 187.737 761.879 201.759 744.301 201.759Z" fill="#0D0D0D"/>
<path d="M821.519 110.729C814.822 110.729 809.381 116.169 809.381 122.866V213.895C809.381 220.592 814.822 226.032 821.519 226.032C828.425 226.032 833.865 220.592 833.865 213.895V122.866C833.865 116.169 828.425 110.729 821.519 110.729Z" fill="#0D0D0D"/>
<path d="M906.271 198.201C901.249 193.807 893.506 194.434 889.111 199.457C888.483 200.294 886.809 201.759 884.298 201.759C880.741 201.759 878.02 198.829 878.02 195.271V135.004H893.506C900.203 135.004 905.643 129.563 905.643 122.867C905.643 116.17 900.203 110.729 893.506 110.729H878.02V97.336C878.02 90.6399 872.58 85.1992 865.883 85.1992C858.977 85.1992 853.537 90.6399 853.537 97.336V110.729C847.259 110.938 842.027 116.38 842.027 122.867C842.027 129.353 847.259 134.795 853.537 135.004V195.271C853.537 212.222 867.348 226.033 884.298 226.033C893.297 226.033 901.877 222.057 907.736 215.36C912.13 210.129 911.503 202.386 906.271 198.201Z" fill="#0D0D0D"/>
<path fill-rule="evenodd" clip-rule="evenodd" d="M821.622 69.329C830.423 69.329 837.556 76.4625 837.556 85.2627C837.556 94.0618 830.423 101.196 821.622 101.196C812.823 101.196 805.689 94.0618 805.689 85.2627C805.689 76.4625 812.823 69.329 821.622 69.329Z" fill="#F47016"/>
<path fill-rule="evenodd" clip-rule="evenodd" d="M58.2335 0C90.1697 0 116.299 26.1294 116.299 58.0645V86.8063C105.138 79.3606 91.7303 75.0176 77.3069 75.0176C38.4503 75.0176 6.95055 106.517 6.95055 145.373C6.95055 165.269 15.2111 183.233 28.4863 196.03C11.5582 185.855 0.168213 167.305 0.168213 146.223V58.0645C0.168213 26.1294 26.2976 0 58.2335 0Z" fill="url(#paint0_linear_101_10)"/>
<mask id="mask0_101_10" style="mask-type:luminance" maskUnits="userSpaceOnUse" x="0" y="0" width="117" height="197">
<path d="M58.2335 0C90.1697 0 116.299 26.1294 116.299 58.0645V86.8063C105.138 79.3606 91.7303 75.0176 77.3069 75.0176C38.4503 75.0176 6.95055 106.517 6.95055 145.373C6.95055 165.269 15.2111 183.233 28.4863 196.03C11.5582 185.855 0.168213 167.305 0.168213 146.223V58.0645C0.168213 26.1294 26.2976 0 58.2335 0Z" fill="white"/>
</mask>
<g mask="url(#mask0_101_10)">
<path fill-rule="evenodd" clip-rule="evenodd" d="M73.9847 62.9348C119.396 62.9348 156.209 99.7474 156.209 145.158C156.209 190.569 119.396 227.382 73.9847 227.382C28.5737 227.382 -8.23926 190.569 -8.23926 145.158C-8.23926 99.7474 28.5737 62.9348 73.9847 62.9348ZM73.9847 105.474C95.9018 105.474 113.669 123.241 113.669 145.158C113.669 167.075 95.9018 184.843 73.9847 184.843C52.0676 184.843 34.3001 167.075 34.3001 145.158C34.3001 123.241 52.0676 105.474 73.9847 105.474Z" fill="#434242"/>
</g>
<path fill-rule="evenodd" clip-rule="evenodd" d="M82.224 68.9292C127.635 68.9292 164.448 105.742 164.448 151.153C164.448 196.563 127.635 233.376 82.224 233.376C36.813 233.376 0 196.563 0 151.153C0 105.742 36.813 68.9292 82.224 68.9292ZM82.224 111.468C104.141 111.468 121.909 129.236 121.909 151.153C121.909 173.07 104.141 190.837 82.224 190.837C60.3069 190.837 42.5393 173.07 42.5393 151.153C42.5393 129.236 60.3069 111.468 82.224 111.468Z" fill="url(#paint1_linear_101_10)"/>
<defs>
<linearGradient id="paint0_linear_101_10" x1="0.168213" y1="117.821" x2="97.2295" y2="5.92895" gradientUnits="userSpaceOnUse">
<stop stop-color="#4A1877"/>
<stop offset="0.470588" stop-color="#8826B7"/>
<stop offset="1" stop-color="#C735F7"/>
</linearGradient>
<linearGradient id="paint1_linear_101_10" x1="135.775" y1="282.732" x2="17.5314" y2="-7.80352" gradientUnits="userSpaceOnUse">
<stop stop-color="#EC1C24"/>
<stop offset="0.419608" stop-color="#F58612"/>
<stop offset="1" stop-color="#FFF100"/>
</linearGradient>
</defs>
</svg>
