<svg width="910" height="233" viewBox="0 0 910 233" fill="none" xmlns="http://www.w3.org/2000/svg">
<path d="M298.563 146.068C304.209 138.965 307.554 129.981 307.554 120.37C307.554 97.5975 288.944 79.0032 266.36 79.0032H215.127C208.435 79.0032 202.998 84.4352 202.998 91.1207V213.551C202.998 220.237 208.435 225.669 215.127 225.669H272.215C296.472 225.669 316.337 205.821 316.337 181.585C316.337 166.96 309.437 154.216 298.563 146.068ZM283.298 120.37C283.298 129.772 275.56 137.294 266.36 137.294H227.255V103.238H266.36C275.56 103.238 283.298 110.968 283.298 120.37ZM272.215 201.433H227.255V161.528H272.215C283.089 161.528 292.08 170.512 292.08 181.585C292.08 192.449 283.089 201.433 272.215 201.433Z" fill="#FEFEFE"/>
<path d="M337.877 225.669C331.185 225.669 325.748 220.237 325.748 213.551V91.1207C325.748 84.4352 331.185 79.0032 337.877 79.0032C344.569 79.0032 350.215 84.4352 350.215 91.1207V213.551C350.215 220.237 344.569 225.669 337.877 225.669Z" fill="#FEFEFE"/>
<path d="M417.131 226.295C385.345 226.295 359.624 200.389 359.624 168.841C359.624 137.084 385.345 111.178 417.131 111.178C448.915 111.178 474.845 137.084 474.845 168.841C474.845 200.389 448.915 226.295 417.131 226.295ZM417.131 135.413C398.728 135.413 383.881 150.456 383.881 168.841C383.881 187.018 398.728 202.061 417.131 202.061C435.532 202.061 450.379 187.018 450.379 168.841C450.379 150.456 435.532 135.413 417.131 135.413Z" fill="#FEFEFE"/>
<path d="M579.403 185.764C573.756 182.003 566.228 183.257 562.464 188.898C556.818 196.837 548.036 201.433 537.998 201.433C520.432 201.433 507.676 187.435 507.676 168.005C507.676 148.784 520.432 134.786 537.998 134.786C548.036 134.786 556.818 139.382 562.464 147.321C566.228 152.962 573.756 154.216 579.403 150.456C584.839 146.486 586.094 138.965 582.33 133.532C572.083 118.908 555.982 110.551 537.998 110.551C522.732 110.551 508.513 116.609 498.476 127.892C488.647 138.338 483.21 152.754 483.21 168.005C483.21 183.466 488.647 197.882 498.476 208.328C508.513 219.61 522.732 225.669 537.998 225.669C555.982 225.669 572.083 217.312 582.33 202.686C586.094 197.255 584.839 189.734 579.403 185.764Z" fill="#FEFEFE"/>
<path d="M678.312 206.448L652.383 170.93C668.902 156.096 674.757 135.204 677.476 126.011C679.149 119.534 675.385 112.849 668.902 110.968C662.42 109.089 655.728 112.849 654.056 119.326C648.618 138.546 641.09 150.665 630.216 157.141C629.589 157.559 629.171 157.768 628.544 157.977C625.197 159.857 621.434 161.32 617.251 162.156V91.1207C617.251 84.4352 611.606 79.0032 604.914 79.0032C598.222 79.0032 592.786 84.4352 592.786 91.1207V213.551C592.786 220.237 598.222 225.669 604.914 225.669C611.606 225.669 617.251 220.237 617.251 213.551V186.599C622.27 185.972 627.08 184.719 631.262 183.257L658.656 220.654C661.166 223.997 664.72 225.669 668.484 225.669C670.994 225.669 673.503 224.833 675.594 223.371C681.031 219.4 682.286 211.671 678.312 206.448Z" fill="#FEFEFE"/>
<path d="M783.496 127.892C773.25 116.609 759.03 110.551 743.765 110.551C732.472 110.551 722.017 113.684 713.234 119.743V91.1207C713.234 84.4352 707.798 79.0032 701.105 79.0032C694.414 79.0032 688.977 84.4352 688.977 91.1207V213.551C688.977 220.237 694.414 225.669 701.105 225.669C706.752 225.669 711.771 221.699 712.816 216.267C721.808 222.325 732.472 225.669 743.765 225.669C759.03 225.669 773.25 219.61 783.496 208.328C793.116 197.882 798.552 183.466 798.552 168.214C798.552 152.754 793.116 138.338 783.496 127.892ZM743.765 201.433C725.991 201.433 713.234 187.435 713.234 168.214C713.234 148.784 725.991 134.786 743.765 134.786C761.331 134.786 774.086 148.784 774.086 168.214C774.086 187.435 761.331 201.433 743.765 201.433Z" fill="#FEFEFE"/>
<path d="M820.927 110.55C814.235 110.55 808.798 115.982 808.798 122.669V213.55C808.798 220.236 814.235 225.668 820.927 225.668C827.828 225.668 833.265 220.236 833.265 213.55V122.669C833.265 115.982 827.828 110.55 820.927 110.55Z" fill="#FEFEFE"/>
<path d="M905.619 197.882C900.6 193.494 892.862 194.121 888.471 199.135C887.843 199.971 886.171 201.433 883.661 201.433C880.106 201.433 877.388 198.509 877.388 194.957V134.786H892.862C899.554 134.786 904.991 129.354 904.991 122.669C904.991 115.983 899.554 110.551 892.862 110.551H877.388V97.1791C877.388 90.4936 871.951 85.062 865.259 85.062C858.359 85.062 852.922 90.4936 852.922 97.1791V110.551C846.648 110.76 841.421 116.192 841.421 122.669C841.421 129.145 846.648 134.577 852.922 134.786V194.957C852.922 211.88 866.723 225.669 883.661 225.669C892.653 225.669 901.227 221.7 907.082 215.013C911.474 209.79 910.846 202.06 905.619 197.882Z" fill="#FEFEFE"/>
<path fill-rule="evenodd" clip-rule="evenodd" d="M821.031 69.2173C829.825 69.2173 836.953 76.3393 836.953 85.1249C836.953 93.9102 829.825 101.032 821.031 101.032C812.238 101.032 805.109 93.9102 805.109 85.1249C805.109 76.3393 812.238 69.2173 821.031 69.2173Z" fill="#F47016"/>
<path fill-rule="evenodd" clip-rule="evenodd" d="M58.1918 0C90.1048 0 116.215 26.0871 116.215 57.9708V86.6664C105.062 79.2327 91.6646 74.8968 77.2514 74.8968C38.4225 74.8968 6.94526 106.345 6.94526 145.139C6.94526 165.003 15.2003 182.937 28.4657 195.714C11.5498 185.556 0.168091 167.036 0.168091 145.987V57.9708C0.168091 26.0871 26.2787 0 58.1918 0Z" fill="url(#paint0_linear_102_34)"/>
<mask id="mask0_102_34" style="mask-type:luminance" maskUnits="userSpaceOnUse" x="0" y="0" width="117" height="196">
<path d="M58.1918 0C90.1048 0 116.215 26.0871 116.215 57.9708V86.6664C105.062 79.2327 91.6646 74.8968 77.2514 74.8968C38.4225 74.8968 6.94526 106.345 6.94526 145.139C6.94526 165.003 15.2003 182.937 28.4657 195.714C11.5498 185.556 0.168091 167.036 0.168091 145.987V57.9708C0.168091 26.0871 26.2787 0 58.1918 0Z" fill="white"/>
</mask>
<g mask="url(#mask0_102_34)">
<path fill-rule="evenodd" clip-rule="evenodd" d="M73.9313 62.8333C119.31 62.8333 156.096 99.5867 156.096 144.924C156.096 190.262 119.31 227.015 73.9313 227.015C28.553 227.015 -8.23346 190.262 -8.23346 144.924C-8.23346 99.5867 28.553 62.8333 73.9313 62.8333ZM73.9313 105.304C95.8329 105.304 113.588 123.043 113.588 144.924C113.588 166.806 95.8329 184.545 73.9313 184.545C52.0302 184.545 34.2754 166.806 34.2754 144.924C34.2754 123.043 52.0302 105.304 73.9313 105.304Z" fill="#434242"/>
</g>
<path fill-rule="evenodd" clip-rule="evenodd" d="M82.1648 68.8182C127.543 68.8182 164.33 105.572 164.33 150.909C164.33 196.247 127.543 233 82.1648 233C36.7864 233 0 196.247 0 150.909C0 105.572 36.7864 68.8182 82.1648 68.8182ZM82.1648 111.288C104.066 111.288 121.821 129.027 121.821 150.909C121.821 172.791 104.066 190.529 82.1648 190.529C60.2636 190.529 42.5088 172.791 42.5088 150.909C42.5088 129.027 60.2636 111.288 82.1648 111.288Z" fill="url(#paint1_linear_102_34)"/>
<defs>
<linearGradient id="paint0_linear_102_34" x1="0.168093" y1="117.631" x2="97.0601" y2="5.83325" gradientUnits="userSpaceOnUse">
<stop stop-color="#4A1877"/>
<stop offset="0.470588" stop-color="#8826B7"/>
<stop offset="1" stop-color="#C735F7"/>
</linearGradient>
<linearGradient id="paint1_linear_102_34" x1="135.677" y1="282.277" x2="17.7009" y2="-7.86579" gradientUnits="userSpaceOnUse">
<stop stop-color="#EC1C24"/>
<stop offset="0.419608" stop-color="#F58612"/>
<stop offset="1" stop-color="#FFF100"/>
</linearGradient>
</defs>
</svg>
